<svg width="247" height="50" viewBox="0 0 247 50" fill="none" xmlns="http://www.w3.org/2000/svg">
<g clip-path="url(#clip0_2_326)">
<path d="M46.5099 45.4285C46.5099 47.5459 47.4932 48.7626 49.3115 48.7626C50.4141 48.7626 51.057 48.4289 51.8047 47.6641L52.7531 48.5087C51.7843 49.4891 50.897 49.9852 49.262 49.9852C46.7485 49.9852 45.1047 48.4555 45.1047 45.0416C45.1047 41.9201 46.5914 40.0951 49.0089 40.0951C51.4265 40.0951 52.916 41.9024 52.916 44.764V45.4137H46.5099V45.4285ZM51.2461 42.7559C51.0509 42.3236 50.7376 41.9573 50.3433 41.7005C49.9491 41.4437 49.4905 41.3072 49.022 41.3072C48.5536 41.3072 48.095 41.4437 47.7007 41.7005C47.3065 41.9573 46.9931 42.3236 46.7979 42.7559C46.5947 43.2669 46.4957 43.8144 46.507 44.3654H51.5312C51.5409 43.8146 51.442 43.2674 51.2403 42.7559" fill="#00305B"/>
<path d="M60.8147 49.8819L58.531 46.1373L56.2123 49.8819H54.5308L57.76 44.956L54.6675 40.228H56.349L58.531 43.7984L60.6809 40.228H62.3595L59.267 44.956L62.4963 49.8819H60.8147Z" fill="#00305B"/>
<path d="M68.4689 50C66.0717 50 64.2534 48.3521 64.2534 45.0564C64.2534 41.7607 66.0717 40.1099 68.4689 40.1099C69.781 40.1099 70.613 40.4613 71.5992 41.5421L70.6537 42.4399C69.9351 41.6337 69.3766 41.359 68.4689 41.359C68.0403 41.3417 67.6143 41.4331 67.2293 41.6249C66.8442 41.8167 66.5124 42.1029 66.2637 42.4576C65.8186 43.0866 65.644 43.8338 65.644 45.0505C65.644 46.2672 65.8186 47.0114 66.2637 47.6404C66.5124 47.9951 66.8442 48.2813 67.2293 48.4732C67.6143 48.665 68.0403 48.7563 68.4689 48.739C69.3766 48.739 69.9235 48.4437 70.6537 47.6404L71.5992 48.5618C70.613 49.6397 69.781 49.9941 68.4689 49.9941" fill="#00305B"/>
<path d="M74.808 45.4285C74.808 47.5459 75.7913 48.7626 77.6096 48.7626C78.7122 48.7626 79.3551 48.4289 80.1028 47.6641L81.0512 48.5087C80.0853 49.4891 79.1951 49.9852 77.5601 49.9852C75.0465 49.9852 73.4028 48.4555 73.4028 45.0416C73.4028 41.9201 74.8924 40.0951 77.3099 40.0951C79.7275 40.0951 81.2141 41.9024 81.2141 44.764V45.4137H74.808V45.4285ZM79.5413 42.7559C79.3466 42.3235 79.0336 41.9569 78.6396 41.6999C78.2455 41.443 77.787 41.3063 77.3187 41.3063C76.8503 41.3063 76.3918 41.443 75.9977 41.6999C75.6037 41.9569 75.2907 42.3235 75.096 42.7559C74.8928 43.2669 74.7938 43.8144 74.8051 44.3654H79.8293C79.8422 43.8143 79.7432 43.2664 79.5384 42.7559" fill="#00305B"/>
<path d="M86.6168 49.8819C84.9556 49.8819 84.2021 48.7833 84.2021 47.3126V35.9105H85.5928V47.2536C85.5928 48.1927 85.904 48.6652 86.8699 48.6652H87.6234V49.8819H86.6168Z" fill="#00305B"/>
<path d="M92.0279 49.8819C90.3668 49.8819 89.6104 48.7833 89.6104 47.3126V35.9105H91.0039V47.2536C91.0039 48.1927 91.3122 48.6652 92.2781 48.6652H93.0316V49.8819H92.0279Z" fill="#00305B"/>
<path d="M96.3771 45.4285C96.3771 47.5459 97.3662 48.7626 99.1816 48.7626C100.284 48.7626 100.927 48.4289 101.675 47.6641L102.623 48.5087C101.657 49.4891 100.767 49.9852 99.1321 49.9852C96.6186 49.9852 94.9749 48.4555 94.9749 45.0416C94.9749 41.9201 96.4644 40.0951 98.882 40.0951C101.3 40.0951 102.786 41.9024 102.786 44.764V45.4137H96.3771V45.4285ZM101.116 42.7559C100.921 42.3236 100.608 41.9573 100.213 41.7005C99.8192 41.4437 99.3606 41.3072 98.8921 41.3072C98.4237 41.3072 97.9651 41.4437 97.5708 41.7005C97.1766 41.9573 96.8632 42.3236 96.668 42.7559C96.4664 43.2674 96.3675 43.8146 96.3771 44.3654H101.404C101.416 43.8144 101.317 43.2669 101.113 42.7559" fill="#00305B"/>
<path d="M111.976 49.8819V43.9372C111.976 42.2273 111.069 41.3649 109.649 41.3649C108.229 41.3649 107.293 42.2509 107.293 43.9372V49.8819H105.887V40.228H107.281V41.2882C107.614 40.9054 108.025 40.6013 108.486 40.3972C108.947 40.1931 109.446 40.094 109.949 40.1069C110.394 40.0842 110.838 40.1524 111.257 40.3077C111.675 40.4629 112.058 40.7019 112.384 41.0106C113.062 41.678 113.37 42.5817 113.37 43.6979V49.8819H111.976Z" fill="#00305B"/>
<path d="M120.425 50C118.028 50 116.212 48.3521 116.212 45.0564C116.212 41.7607 118.028 40.1099 120.425 40.1099C121.74 40.1099 122.572 40.4613 123.555 41.5421L122.61 42.4399C121.894 41.6337 121.333 41.359 120.425 41.359C119.997 41.3414 119.571 41.4327 119.186 41.6245C118.802 41.8164 118.471 42.1028 118.223 42.4576C117.778 43.0866 117.603 43.8338 117.603 45.0505C117.603 46.2672 117.778 47.0114 118.223 47.6404C118.471 47.9953 118.802 48.2817 119.186 48.4735C119.571 48.6654 119.997 48.7566 120.425 48.739C121.333 48.739 121.894 48.4437 122.61 47.6404L123.555 48.5618C122.572 49.6397 121.74 49.9941 120.425 49.9941" fill="#00305B"/>
<path d="M126.764 45.4285C126.764 47.5459 127.751 48.7626 129.569 48.7626C130.669 48.7626 131.314 48.4289 132.062 47.6641L133.01 48.5087C132.045 49.4891 131.154 49.9852 129.519 49.9852C127.006 49.9852 125.362 48.4555 125.362 45.0416C125.362 41.9201 126.852 40.0951 129.266 40.0951C131.681 40.0951 133.176 41.9024 133.176 44.764V45.4137H126.764V45.4285ZM131.503 42.7559C131.308 42.3236 130.995 41.9573 130.601 41.7005C130.206 41.4437 129.748 41.3072 129.279 41.3072C128.811 41.3072 128.352 41.4437 127.958 41.7005C127.564 41.9573 127.25 42.3236 127.055 42.7559C126.852 43.2668 126.753 43.8144 126.764 44.3654H131.809C131.819 43.8146 131.72 43.2674 131.518 42.7559" fill="#00305B"/>
<path d="M143.428 41.365V49.8819H142.038V41.365H140.827V40.2871H142.046V38.462C142.046 37.0297 142.838 35.8721 144.461 35.8721H145.468V37.0888H144.714C143.824 37.0888 143.437 37.6203 143.437 38.5004V40.2871H145.473V41.365H143.437" fill="#00305B"/>
<path d="M153.41 48.9014C152.672 49.6071 151.697 50.0001 150.684 50.0001C149.67 50.0001 148.695 49.6071 147.958 48.9014C146.992 47.9003 146.794 46.5389 146.794 45.0623C146.794 43.5858 146.989 42.2155 147.958 41.2232C148.695 40.5176 149.67 40.1246 150.684 40.1246C151.697 40.1246 152.672 40.5176 153.41 41.2232C154.376 42.2243 154.574 43.5858 154.574 45.0623C154.574 46.5389 154.382 47.9062 153.41 48.9014ZM152.424 42.0708C152.193 41.8422 151.92 41.6621 151.62 41.541C151.321 41.4199 151 41.3601 150.678 41.365C150.359 41.3609 150.043 41.4212 149.747 41.5424C149.451 41.6635 149.182 41.8432 148.956 42.0708C148.26 42.7795 148.185 43.9756 148.185 45.0564C148.185 46.1373 148.26 47.3304 148.956 48.0391C149.182 48.2667 149.451 48.4464 149.747 48.5675C150.043 48.6887 150.359 48.749 150.678 48.7449C151 48.7498 151.321 48.69 151.62 48.5689C151.92 48.4478 152.193 48.2677 152.424 48.0391C153.119 47.3304 153.177 46.1373 153.177 45.0564C153.177 43.9756 153.119 42.7795 152.424 42.0708Z" fill="#00305B"/>
<path d="M162.647 42.0708C162.446 41.8315 162.192 41.6431 161.907 41.5206C161.622 41.3981 161.312 41.3448 161.003 41.3649C159.612 41.3649 158.722 42.4872 158.722 43.9549V49.8819H157.332V40.228H158.722V41.4092C159.246 40.603 160.287 40.1128 161.39 40.1128C161.812 40.0871 162.234 40.1546 162.628 40.3106C163.022 40.4666 163.378 40.7074 163.671 41.0165L162.647 42.0708Z" fill="#00305B"/>
<path d="M172.198 49.8819C170.536 49.8819 169.783 48.7833 169.783 47.3126V35.9105H171.174V47.2536C171.174 48.1927 171.485 48.6652 172.451 48.6652H173.204V49.8819H172.198Z" fill="#00305B"/>
<path d="M175.776 35.8927H177.341V37.4815H175.776V35.8927ZM177.231 49.8819H175.837V40.228H177.231V49.8819Z" fill="#00305B"/>
<path d="M182.578 41.365V49.8819H181.187V41.365H179.968V40.2871H181.187V38.462C181.187 37.0297 181.981 35.8721 183.605 35.8721H184.609V37.0888H183.852C182.979 37.0888 182.578 37.6203 182.578 38.5004V40.2871H184.614V41.365H182.578Z" fill="#00305B"/>
<path d="M187.198 45.4285C187.198 47.5459 188.181 48.7626 189.999 48.7626C191.102 48.7626 191.745 48.4289 192.492 47.6641L193.441 48.5087C192.475 49.4891 191.585 49.9852 189.95 49.9852C187.436 49.9852 185.795 48.4555 185.795 45.0416C185.795 41.9201 187.282 40.0951 189.7 40.0951C192.117 40.0951 193.604 41.9024 193.604 44.764V45.4137H187.198V45.4285ZM191.934 42.7559C191.739 42.3235 191.426 41.9569 191.032 41.6999C190.638 41.443 190.18 41.3063 189.711 41.3063C189.243 41.3063 188.784 41.443 188.39 41.6999C187.996 41.9569 187.683 42.3235 187.489 42.7559C187.285 43.2668 187.186 43.8144 187.198 44.3654H192.222C192.233 43.8144 192.134 43.2669 191.931 42.7559" fill="#00305B"/>
<path d="M45.0786 28.5896V3.14218H58.3971C59.7179 3.14218 61.8882 3.28984 63.5057 4.45929C65.1233 5.62874 66.3655 7.67824 66.3655 9.83405C66.3655 12.6514 64.8062 14.8072 62.3711 15.3565V15.4303C65.1087 15.9028 67.3168 17.9877 67.3168 21.2037C67.3168 27.494 62.8162 28.5866 58.1149 28.5866H45.0786V28.5896ZM52.7968 12.9083H56.5788C57.8473 12.9083 58.8015 12.3974 58.8015 10.7525C58.8015 8.81521 57.4458 8.59372 56.0784 8.59372H52.7968V12.9083ZM52.7968 22.9254H56.7156C58.016 22.9254 59.3077 22.3791 59.3077 20.6603C59.3077 18.6847 57.7833 18.3185 56.381 18.3185H52.7968V22.9254Z" fill="#00305B"/>
<path d="M78.5465 3.14218H70.645V28.5896H78.5465V3.14218Z" fill="#00305B"/>
<path d="M106.513 15.9028C106.513 23.3241 102.041 29.2186 94.2737 29.2186C86.5061 29.2186 82.0549 23.3123 82.0549 15.9028C82.0549 8.14779 86.4886 2.47772 94.2737 2.47772C102.059 2.47772 106.513 8.14779 106.513 15.9028ZM90.4364 15.9412C90.4364 18.478 90.7041 23.2887 94.2737 23.2887C97.8434 23.2887 98.1081 18.478 98.1081 15.9412C98.1081 13.4044 97.7386 8.33384 94.2737 8.33384C90.8088 8.33384 90.4364 13.4044 90.4364 15.9412Z" fill="#00305B"/>
<path d="M121.155 9.28771V28.5896H113.251V9.28771H107.019V3.14218H127.256V9.28771H121.155Z" fill="#00305B"/>
<path d="M153.288 28.5896H144.182L139.876 19.1099H138.035V28.5896H130.13V3.14218H142.366C144.604 3.14218 147.039 3.47294 148.938 4.71326C151.039 6.06877 152.074 8.2984 152.074 10.7879C152.074 14.1102 150.681 16.3605 147.679 17.7485L153.288 28.5896ZM138.035 13.6554H140.167C141.869 13.6554 143.934 13.1593 143.934 10.9681C143.934 10.5402 143.819 10.1205 143.602 9.75379C143.384 9.3871 143.073 9.08719 142.701 8.88608C142.038 8.55533 141.203 8.55533 140.47 8.55533H138.035V13.6554Z" fill="#00305B"/>
<path d="M178.921 15.9028C178.921 23.3241 174.45 29.2186 166.682 29.2186C158.914 29.2186 154.463 23.3123 154.463 15.9028C154.463 8.14779 158.9 2.47772 166.682 2.47772C174.464 2.47772 178.921 8.14779 178.921 15.9028ZM162.848 15.9412C162.848 18.478 163.112 23.2887 166.682 23.2887C170.252 23.2887 170.516 18.478 170.516 15.9412C170.516 13.4044 170.15 8.33384 166.682 8.33384C163.214 8.33384 162.848 13.4044 162.848 15.9412Z" fill="#00305B"/>
<path d="M218.321 3.14218H210.419V28.5896H218.321V3.14218Z" fill="#00305B"/>
<path d="M239 12.4683L245.982 3.14218H237.385L231.346 11.9131V3.14218H223.444H223.438V28.5896H223.444H231.346V21.9213L233.481 18.9741L237.848 28.5896H247L239 12.4683Z" fill="#00305B"/>
<path d="M205.287 28.5896H197.022L190.002 14.4144C189.868 14.1427 189.397 12.9378 189.397 12.9378C189.397 12.9378 189.589 14.6713 189.589 15.4716V28.5896H182.429V3.14218H191.62L197.607 15.4067C197.752 15.702 198.352 17.1461 198.352 17.1461C198.352 17.1461 198.133 15.3122 198.133 14.5384V3.14218H205.276L205.287 28.5896Z" fill="#00305B"/>
<path d="M24.9001 28.9823C22.4156 30.7926 19.7537 31.6402 16.7222 31.8351V22.131H30.0727C28.9498 24.9838 27.3671 27.1839 24.9001 28.9823ZM6.43808 28.9823C3.93614 27.1898 2.32733 24.9956 1.17236 22.131H14.6741V31.8351C11.6223 31.6254 8.94875 30.7867 6.43808 28.9823Z" fill="#698CA5"/>
<path d="M21.5254 9.90196C21.9588 9.08098 22.7385 8.64095 23.8004 8.56122C24.9088 8.59075 25.7379 9.00715 26.2354 9.83699C26.7148 10.6496 26.9391 11.591 26.8784 12.5362C26.7736 14.3406 25.8485 16.331 23.7975 16.3428C23.3727 16.3171 22.9604 16.1867 22.5965 15.9629C22.2325 15.739 21.9278 15.4285 21.7086 15.0582C21.2535 14.2954 21.0037 13.4248 20.9842 12.5332C20.921 11.6222 21.1083 10.7112 21.5254 9.90196ZM19.8991 16.5761C20.9076 17.6642 22.3003 18.3015 23.7713 18.348C27.0558 18.348 29.197 15.6902 29.3687 12.5185C29.4062 10.9947 28.8536 9.51666 27.8297 8.40175C27.3288 7.85265 26.7243 7.41129 26.0521 7.10387C25.38 6.79644 24.6538 6.62922 23.9168 6.61213C23.174 6.5956 22.4363 6.7407 21.7533 7.03767C21.0704 7.33464 20.458 7.7766 19.9573 8.33383C18.9165 9.47394 18.3414 10.973 18.3485 12.5273C18.3261 14.0293 18.8801 15.4813 19.8933 16.5761H19.8991ZM6.3217 11.5734V8.77385H8.94001C9.7255 8.77385 10.3946 9.2936 10.4208 10.1353C10.4168 10.3299 10.3728 10.5216 10.2916 10.6981C10.2105 10.8745 10.094 11.0319 9.94951 11.16C9.66117 11.4192 9.29026 11.564 8.9051 11.5675L6.3217 11.5734ZM6.3217 16.5259V13.2567H8.85564C9.7866 13.2567 10.5546 13.8474 10.6623 14.819C10.7408 15.9766 9.84478 16.5111 8.82073 16.5259H6.3217ZM3.94485 7.02558V18.224H9.28621C11.5409 18.2417 13.1846 17.0811 13.1846 15.0375C13.1743 14.3944 12.956 13.7725 12.5633 13.2677C12.1706 12.7628 11.6253 12.4031 11.0114 12.2438C11.5932 12.0164 12.7162 11.2073 12.7162 9.79269C12.7162 7.9381 11.3605 7.03739 9.5975 7.04034L3.94485 7.02558ZM0.602136 20.1967L0.567226 20.0697C0.189018 18.7253 -1.40518e-05 17.3334 0.00574286 15.9353C0.0522906 10.4719 2.5135 5.52537 7.0461 2.50428C9.38803 0.939105 11.8609 0.227394 14.6421 0.0354388V18.1354H16.7629L16.728 0C19.518 0.17719 22.0054 0.885948 24.3561 2.44226C28.9119 5.47516 31.3208 10.4631 31.3673 15.9353C31.3545 17.3781 31.145 18.8122 30.7447 20.1967H0.602136Z" fill="#698CA5"/>
</g>
<defs>
<clipPath id="clip0_2_326">
<rect width="247" height="50" fill="white"/>
</clipPath>
</defs>
</svg>
